<?xml version="1.0" encoding="UTF-8" standalone="no"?>
<!-- Created with Inkscape (http://www.inkscape.org/) -->

<svg
   width="60.094498mm"
   height="36.906437mm"
   viewBox="0 0 60.094498 36.906437"
   version="1.1"
   id="svg1"
   xml:space="preserve"
   xmlns:xlink="http://www.w3.org/1999/xlink"
   xmlns="http://www.w3.org/2000/svg"
   xmlns:svg="http://www.w3.org/2000/svg"><defs
     id="defs1"><linearGradient
       id="linearGradient3"><stop
         style="stop-color:#ff4413;stop-opacity:1;"
         offset="0"
         id="stop3" /><stop
         style="stop-color:#e6ff13;stop-opacity:1;"
         offset="1"
         id="stop4" /></linearGradient><linearGradient
       xlink:href="#linearGradient3"
       id="linearGradient4"
       x1="83.002007"
       y1="140.31221"
       x2="122.90315"
       y2="140.31221"
       gradientUnits="userSpaceOnUse" /></defs><g
     id="layer1"
     transform="translate(-72.93992,-118.80223)"><path
       style="fill:url(#linearGradient4);fill-opacity:1;stroke:#747474;stroke-width:1;stroke-linejoin:round;stroke-dasharray:1.02501, 3.07504;stroke-opacity:0.878629"
       d="m 90.692982,127.31596 c 0,0 -7.549094,2.78369 -7.17768,10.37727 0.371412,7.5936 5.764898,11.66541 8.39221,12.98082 2.627313,1.3154 5.304711,3.0076 10.816248,3.10921 5.51154,0.1016 11.93339,-2.97542 14.77344,-5.99965 2.84005,-3.02422 5.13866,-8.02464 4.88904,-11.41661 -0.24962,-3.39197 -2.64388,-7.92709 -3.96194,-8.6719 -1.31805,-0.74481 -8.37193,-1.25215 -9.38277,-0.44939 -1.01083,0.80275 -4.62309,2.31739 -5.737,3.44041 -1.11391,1.12303 -2.21444,-1.35438 -2.21444,-1.35438 0,0 -4.494841,-3.46253 -10.397108,-2.01578 z"
       id="path3" /><path
       style="fill:#000000"
       d="m 102.83132,155.46813 c 0.0909,-0.14706 -2.1072,-0.28877 -5.474486,-0.35295 -3.094493,-0.059 -5.924008,-0.18363 -6.28781,-0.27699 -0.363802,-0.0934 -1.585689,-0.40629 -2.715303,-0.6954 -5.471732,-1.40042 -10.499913,-4.65248 -12.518131,-8.0963 -1.167302,-1.99185 -1.085933,-0.83782 0.109782,1.55701 1.12055,2.24428 3.285704,5.10169 4.437648,5.85647 0.523518,0.34302 0.748929,0.36942 1.046419,0.12252 0.208543,-0.17308 0.379169,-0.24738 0.379169,-0.16512 0,0.29648 -1.115137,2.0319 -1.305643,2.0319 -0.407901,0 -3.70257,-3.65712 -4.738228,-5.25948 -1.352509,-2.0926 -2.104903,-4.0602 -2.59225,-6.77906 -1.298524,-7.24434 2.911762,-14.87784 10.84866,-19.66926 5.784394,-3.49197 14.883639,-5.47777 22.045933,-4.81125 3.42362,0.3186 8.57178,1.47013 11.15207,2.49447 2.50919,0.99611 5.40008,2.62369 7.59696,4.27711 7.74298,5.82754 10.32377,14.96789 6.41357,22.71485 -0.44657,0.88476 -1.11473,2.02538 -1.48478,2.5347 -0.7633,1.05056 -4.05159,4.49792 -4.29037,4.49792 -0.0862,0 -0.4391,-0.50602 -0.78412,-1.12448 -0.45382,-0.81351 -0.50424,-1.02436 -0.18233,-0.76245 0.37944,0.30872 0.5423,0.29825 1.10603,-0.0711 1.81312,-1.18801 5.09007,-6.20164 5.55109,-8.49299 0.18068,-0.89804 0.25957,-0.98798 -1.51661,1.72904 -2.34844,3.59239 -7.48034,6.51909 -14.13879,8.06329 -1.1948,0.27709 -3.222,0.39413 -6.82679,0.39413 -3.13282,0 -5.19095,0.10292 -5.29086,0.26458 -0.21239,0.3438 -0.7402,0.34148 -0.54083,0.0189 z m 0.55406,-2.63467 c 0.13824,-0.129 1.06591,-0.37251 2.06148,-0.54112 4.79723,-0.81247 8.45943,-2.70015 11.68632,-6.02371 5.86254,-6.03816 5.36241,-14.51259 -1.02996,-17.45202 -1.41782,-0.65196 -1.93243,-0.74404 -4.14909,-0.74237 -2.31307,0.002 -2.67684,0.0746 -4.23333,0.84796 -1.77173,0.88031 -2.91546,1.82039 -4.09293,3.36413 -0.69286,0.90838 -0.69286,0.90838 -1.80748,-0.4659 -2.282485,-2.81421 -5.066776,-4.03447 -8.742818,-3.83168 -3.448717,0.19026 -6.106841,1.84081 -7.478063,4.64349 -0.59172,1.20943 -0.748106,1.94299 -0.834283,3.91334 -0.122159,2.79306 0.193801,4.56395 1.192885,6.68588 1.969659,4.18331 8.902039,8.5699 14.692569,9.29699 1.01179,0.12704 1.90905,0.30042 1.99391,0.38528 0.21718,0.21718 0.44895,0.19207 0.74079,-0.0803 z m -3.24646,-6.12915 c -0.32307,-0.12538 -0.654505,-0.50101 -0.736525,-0.83473 -0.08202,-0.33372 -0.115347,-2.92699 -0.07406,-5.76281 0.07506,-5.15604 0.07506,-5.15604 0.821865,-5.51374 0.65666,-0.31453 0.80897,-0.30144 1.2619,0.10846 0.48382,0.43786 0.51077,0.80282 0.44382,6.01087 -0.067,5.21415 -0.10282,5.56483 -0.60044,5.88231 -0.34669,0.22118 -0.73171,0.25899 -1.11656,0.10964 z m 1.04064,-8.89618 c -3.7e-4,-1.04414 -0.081,-2.02834 -0.17909,-2.18713 -0.41338,-0.66886 -0.67103,0.15135 -0.67103,2.1362 0,1.80712 0.0629,2.10781 0.4254,2.03491 0.34341,-0.0691 0.42527,-0.45142 0.42472,-1.98398 z m 3.58479,8.65254 c -0.64652,-0.50856 -0.6489,-0.52823 -0.70089,-5.80385 -0.0494,-5.0144 -0.0237,-5.32206 0.48815,-5.83389 0.68823,-0.68822 1.18037,-0.68319 1.83434,0.0188 0.48075,0.51602 0.52057,0.9486 0.51696,5.6157 -0.002,2.78114 -0.11557,5.26525 -0.25204,5.52026 -0.4609,0.86119 -1.17372,1.04369 -1.88652,0.48301 z m 1.38592,-8.71018 c 0,-1.54753 -0.0961,-2.12522 -0.37101,-2.23072 -0.5987,-0.22975 -0.68732,0.0599 -0.68732,2.24651 0,1.89618 0.045,2.07257 0.52916,2.07257 0.48448,0 0.52917,-0.17639 0.52917,-2.08836 z m 9.30251,14.76755 c 2.29554,-0.59565 6.49246,-4.60352 8.04128,-7.67907 1.31138,-2.60404 1.79535,-4.89431 1.61574,-7.64595 -0.20568,-3.15094 -1.01446,-5.38905 -2.2511,-6.22937 -0.92709,-0.62997 -1.46116,-0.48013 -0.86198,0.24184 0.98635,1.18848 1.68708,5.08079 1.32801,7.37659 -0.82116,5.25033 -3.67705,9.41912 -8.6055,12.5616 -3.08559,1.96744 -3.09863,1.98244 -1.5575,1.79041 0.7276,-0.0907 1.75858,-0.27789 2.29105,-0.41605 z m -24.103623,-1.02818 c -2.879821,-1.73082 -4.782751,-3.38678 -6.242306,-5.43217 -1.414028,-1.98158 -2.117329,-3.88835 -2.557764,-6.93455 -0.278155,-1.92382 -0.261962,-2.53313 0.115886,-4.36044 0.241572,-1.16827 0.680071,-2.61093 0.974442,-3.2059 0.294371,-0.59498 0.490178,-1.12682 0.435127,-1.18187 -0.05505,-0.055 -0.452635,0.0822 -0.88352,0.30503 -0.650794,0.33654 -0.906558,0.78364 -1.510711,2.64089 -0.652198,2.00494 -0.715056,2.51826 -0.608862,4.97219 0.182918,4.22682 1.46972,7.15694 4.521044,10.29464 2.47029,2.54022 5.259772,4.17529 7.172407,4.20414 0.652113,0.01 0.435619,-0.18925 -1.415743,-1.30196 z m -2.661383,0.41734 c 0,-0.0564 -0.805508,-0.75331 -1.790018,-1.54876 -2.869782,-2.31868 -4.967777,-5.44312 -5.908873,-8.79979 -0.565252,-2.01613 -0.461264,-6.27231 0.198778,-8.13594 0.709278,-2.00266 0.323073,-1.99338 -1.757242,0.0422 -2.271309,2.22247 -3.045928,3.97842 -3.045242,6.9031 4.82e-4,2.05917 0.07713,2.39033 0.908249,3.92416 1.152756,2.12742 3.402924,4.18018 6.147177,5.6079 2.453816,1.27661 5.247171,2.34511 5.247171,2.00712 z m 33.298556,-1.64811 c 3.07592,-1.50385 5.73702,-3.97093 6.84815,-6.34883 1.0553,-2.25843 1.03845,-4.89915 -0.0454,-7.11411 -0.72701,-1.48574 -3.49041,-4.63021 -4.06907,-4.63021 -0.14191,0 -0.0146,0.74414 0.28283,1.65364 0.76912,2.35163 0.7675,6.05139 -0.004,8.53282 -0.98204,3.15969 -3.31283,6.46034 -6.14886,8.70745 -0.92604,0.73375 -0.92604,0.73375 -0.13229,0.57142 0.43656,-0.0893 1.90732,-0.70676 3.26835,-1.37218 z m 7.30095,-18.02782 c -1.36309,-2.47106 -5.40949,-6.42606 -8.17681,-7.9921 -3.90557,-2.21019 -8.27792,-3.66896 -12.80221,-4.27129 -3.72841,-0.49637 -10.963909,-0.16527 -14.215342,0.65051 -6.349011,1.59294 -10.949697,4.08354 -14.504963,7.85231 -1.419279,1.50451 -3.600181,4.65349 -3.600181,5.19826 0,0.0835 0.878229,-0.68248 1.95162,-1.7021 2.84387,-2.7014 6.169374,-4.49761 10.440479,-5.63925 5.275318,-1.41006 10.128436,-0.58983 13.478967,2.2781 1.11643,0.95563 1.11643,0.95563 2.22092,0.0102 3.93978,-3.3723 10.13123,-3.71499 16.95413,-0.93839 3.34345,1.36062 6.86544,3.881 8.39209,6.00549 1.03288,1.43734 0.94445,0.51182 -0.1387,-1.45176 z"
       id="path1" /></g></svg>
